# xmcd CD database file
#
# Track frame offsets:
#	150
#	23165
#	43931
#	72129
#	98030
#	117547
#	139788
#	157062
#	175625
#
# Disc length: 2587 seconds
#
# Revision: 0
# Processed by: cddbd v1.5PL3 Copyright (c) Steve Scherf et al.
# Submitted via: CDex 1.50
#
DISCID=780a1909
DTITLE=Wicked boy - The Treatment
DYEAR=2004
DGENRE=Jazz
TTITLE0=Pressure
TTITLE1=Not TV
TTITLE2=The Treatment
TTITLE3=Image Within You
TTITLE4=Strange Days
TTITLE5=City Traffic
TTITLE6=Introduce
TTITLE7=Wide Dynamics
TTITLE8=So Nice
EXTD=YEAR: 2004
EXTT0=
EXTT1=
EXTT2=
EXTT3=
EXTT4=
EXTT5=
EXTT6=
EXTT7=
EXTT8=
PLAYORDER=
